<svg id="illustration" version="1.1" viewBox="0 0 800 800" xml:space="preserve" xmlns="http://www.w3.org/2000/svg" enable-background="new 0 0 800 800"><path d="M368.3 275.9s10.7-.6 16.3-15.3c5.6-14.7 3.9-29.5-.8-37.1s-9-16.7-26.5-14.8c-17.5 1.8-25.2-7.9-47.9-7.5-22.7.4-32.7 5.4-37.1 19.7-4.4 14.3-3.7 17.6-10.3 19.7-6.6 2.1-15.5 7.4-10.1 20 5.4 12.5-4.9 18.1-10.7 22.8-5.8 4.6-20.2 15.1-21.8 31.4-1.6 16.2 6.4 24.3 15.1 27.7 0 0 23-20 42-23l9.8-26.5s-5.9-2.6-6.3-7.6c-.3-5 5-9.6 8.5-8.5 3.5 1.1 4.3 1.8 4.3 1.8s7.6-17.4 9.6-18c1.9-.6 15.7 6.8 34.1-6.7s21.5-8.9 21.5-8.9 3.6.8 3.4 2.6 2.2 10.4 6.8 13l.1 15.2z" fill="#ffc107" class="fill-7069f6"></path><path d="M395.8 434.7s-20.5 4.6-22.8 3.9-3.8.5-1.9-12 13.6-71.1 14.9-72c1.3-.9 5.5-1.8 5.5-1.8l10.2-1.2s-6.6-11.6-16.4-18.4c-9.8-6.8-22.5-7.7-22.5-7.7l-1.4 9.4s1.5 7.2.3 16.7-4.3 11.8-8.4 10.3c-4.1-1.5-9.7-5.7-9.7-5.7s-3.7 13.2-9.8 13.2c-6.1-.1-13.9-.1-28.3-21.7 0 0-16.1-8.5-30.2-24.9l1-3.4s-33.9 8.9-49.3 32.1c-15.3 23.2-24.4 57.8-21.7 80.1 2.8 22.3 28 31 28 31s-4.7 16.7-8.2 25.1c-3.6 8.4-7.2 18-5 26.2 0 0-2 9.3 67.8 21.8 0 0 46.5 4.9 73.4 3.3 26.9-1.6 41.8-7 41.8-7s2.4-56.6-7.3-97.3zm-28.3-40.8s-.1 6.2-2.1 7.8c-2 1.6-3 .3-3 .3s-3.7 7.4-7.7 9.2c-3.9 1.8-11.8 1.7-14.4-7.2-2.6-8.9.9-18.8.9-18.8s9.5-6.5 11.4-8c1.9-1.5 5-4.2 6.4-7.2 1.5-3 6-8.2 9.2-8.1 3.2.1 6 6.6 6.1 10.9.1 4.3-3.2 1-4.4.7-1.1-.2-1.5 1.4-1.5 1.4s4.2 2.7 4.8 6.3c.5 3.5-1.3 6.2-3.3 5.6 0 0 .6 2.1.6 4 0 1.8-1.6 4.7-3 3.1z" fill="#1976d2" class="fill-a2a1f8"></path><path d="M368.1 260.6s-.4 21.3 1.4 30.9c1.8 9.6 1.8 7.8-5.7 11.7 0 0-.4 22.4-2.1 29.9-1.8 7.5-13.5 22-18.1 23.1-4.6 1.1-38.7 2.1-68.2-33.4 0 0 9.2-26.3 10.7-30.2 0 0-1.3-.2-3.7-2.4-2.8-2.5-4.2-8.4 1.1-12.5 4-3 10.5.3 11.5 3.9" fill="none" stroke="#212121" stroke-width="2" stroke-linecap="round" stroke-linejoin="round" stroke-miterlimit="10" class="stroke-31199c"></path><path d="M285.8 283.9s3.4 0 3.9 4.3M292.7 278.6s6.7-17.4 9.6-18c2.8-.6 14.2 7 31.5-4.9 17.3-11.8 20.4-14 24.6-10" fill="none" stroke="#212121" stroke-width="2" stroke-linecap="round" stroke-linejoin="round" stroke-miterlimit="10" class="stroke-31199c"></path><path d="M368.3 275.9s13.6-1.2 18.3-21.9-5-48.7-26.8-45.6c-21.8 3.1-31-10-61.8-6.6s-25.8 32.2-32.5 36.8c-6.6 4.7-20.6 6.7-13.3 23.1 7.3 16.4-14.9 19-26.8 37.2-6.9 10.7-8.4 22.8-4.2 31.7M276.6 319.4s-15.8 2-38.5 19.7-46.6 88.8-24.5 110.9c26.7 26.7 74.5 18.1 98.8 1.8 26.7-17.9 30.9-28.4 30.9-28.4" fill="none" stroke="#212121" stroke-width="2" stroke-linecap="round" stroke-linejoin="round" stroke-miterlimit="10" class="stroke-31199c"></path><path d="M258.4 407.1s44.6-27.7 67.3-29.8c14.8-1.4 17.6 6.5 17.6 6.5M395.8 434.7s10.7 56.1 7.5 97.4c0 0-19.2 10-81.7 6.8S231 521.1 231 521.1M305.4 347.6s9.7 18.3 23.7 22.1c9.2 2.5 14.6-13.5 14.6-13.5s7.2 7.3 12.9 5.4 6.6-17.1 5.2-28.5M335.2 316.6s-10.4-.2-15.4-10.9M333.8 265.7s-4.6-2.1-9.8 1.9M351.8 267.6s3.7-.4 6.6 3.8" fill="none" stroke="#212121" stroke-width="2" stroke-linecap="round" stroke-linejoin="round" stroke-miterlimit="10" class="stroke-31199c"></path><path d="M326 285.3c-.1.7-.1 1.3-.2 2 1.5-.9 3-1.7 4.5-2.6h-.1c.2.2.4.3.6.5l-.1-.1c.2.2.3.4.5.6l-.1-.1c.1.2.2.5.3.7v-.2c0 .3.1.5.1.8v-.2c0 .3-.1.5-.1.8v-.2c-.1.2-.2.5-.3.7 0-.1.1-.1.1-.1-.2.2-.3.4-.5.6l.1-.1c-.2.2-.4.3-.6.5 0 0 .1 0 .1-.1-.2.1-.5.2-.7.3.4-.1.7-.3 1-.5.3-.2.6-.5.8-.8.2-.3.3-.7.4-1.1.1-.4.1-.8-.1-1.2-.1-.2-.2-.5-.3-.7-.3-.5-.6-.8-1.1-1.1-.2-.1-.5-.2-.7-.3-.5-.1-1.1-.1-1.6 0-.2.1-.5.2-.7.3-.1.1-.5.4-.6.5l-.1.1c-.1.2-.4.4-.5.6v.1c-.1.1-.1.3-.2.4 0 .1-.1.3-.2.4v.1c0 .3-.1.6-.1.8 0 .7.2 1.2.5 1.8v.1c.1.2.3.5.5.6l.1.1c.1.1.2.2.3.2.1.1.2.2.3.2.9.5 2.1.5 3 0 .5-.3.8-.6 1.1-1.1.3-.5.4-1 .4-1.5.1-.7.1-1.3.2-2 0-.4-.1-.8-.3-1.2-.1-.4-.3-.7-.6-1-.3-.3-.6-.5-1-.6-.4-.2-.7-.3-1.2-.3-.3 0-.5.1-.8.1-.5.1-.9.4-1.3.8-.2.2-.3.4-.5.6-.1.8-.3 1.3-.3 1.8zM346.3 286.8c-.1.7-.1 1.3-.2 2 1.5-.9 3-1.7 4.5-2.6h-.1c.2.2.4.3.6.5l-.1-.1c.2.2.3.4.5.6l-.1-.1c.1.2.2.5.3.7v-.2c0 .3.1.5.1.8v-.2c0 .3-.1.5-.1.8v-.2c-.1.2-.2.5-.3.7 0-.1.1-.1.1-.1-.2.2-.3.4-.5.6l.1-.1c-.2.2-.4.3-.6.5 0 0 .1 0 .1-.1-.2.1-.5.2-.7.3.4-.1.7-.3 1-.5.3-.2.6-.5.8-.8.2-.3.3-.7.4-1.1.1-.4.1-.8-.1-1.2-.1-.2-.2-.5-.3-.7-.3-.5-.6-.8-1.1-1.1-.2-.1-.5-.2-.7-.3-.5-.1-1.1-.1-1.6 0-.2.1-.5.2-.7.3-.1.1-.5.4-.6.5l-.1.1c-.1.2-.4.4-.5.6v.1c-.1.1-.1.3-.2.4 0 .1-.1.3-.2.4v.1c0 .3-.1.6-.1.8 0 .7.2 1.2.5 1.8v.1c.1.2.3.5.5.6l.1.1c.1.1.2.2.3.2.1.1.2.2.3.2.9.5 2.1.5 3 0 .5-.3.8-.6 1.1-1.1.3-.5.4-1 .4-1.5.1-.7.1-1.3.2-2 0-.4-.1-.8-.3-1.2-.1-.4-.3-.7-.6-1-.3-.3-.6-.5-1-.6-.4-.2-.7-.3-1.2-.3-.3 0-.5.1-.8.1-.5.1-.9.4-1.3.8-.2.2-.3.4-.5.6-.1.8-.3 1.3-.3 1.8z" fill="#212121" class="fill-31199c"></path><path d="M437.6 373.6s7.3 5.2 7.4 15.2c.1 10-7.1 25.6-17.4 24.6" fill="none" stroke="#212121" stroke-width="2" stroke-linecap="round" stroke-linejoin="round" stroke-miterlimit="10" class="stroke-31199c"></path><path d="M437.8 379.9s-7.5-2.8-13.3 0M431.1 389.2s-6.3 1.1-9.3 5.5M428.9 398.6c-.5.4-5 2.7-7.1 6.8M428.9 407.9s-3 2.1-3.6 4.8" fill="none" stroke="#212121" stroke-width="2" stroke-linecap="round" stroke-linejoin="round" stroke-miterlimit="10" class="stroke-31199c"></path><path d="M436.2 379.4c2.8-11.7 5.3-22.1 6.3-27.3.2-1.2-.6-2.3-1.8-2.4-6.2-.6-25.4-1.7-52.4 3.6-1.7.3-3.1 1.7-3.5 3.4-2.5 10.1-10.9 45.6-14.9 78.9-.2 1.8 1.3 3.2 3.1 2.9 9.4-1.6 35.6-5.9 48.5-7.1 1.1-.1 2.1-.9 2.4-2 .7-2.9 2.1-8.4 4-16.1" fill="none" stroke="#212121" stroke-width="2" stroke-linecap="round" stroke-linejoin="round" stroke-miterlimit="10" class="stroke-31199c"></path><path d="M428.9 350.1s1.7-5.6 1.2-6.8c-.4-1.2-21.1-1-24.8.4-1.3.5-2.6 8.9-2.6 8.9M341.1 385.3s12.8-9 14.5-10.4c1.7-1.4 5.9-10.9 11.4-12.8 5.4-1.9 7.3 7.8 7.3 7.8M366.6 373.9s7.8 2.8 6.4 10.7M364.4 382.8s6.1 1.8 6.1 7.9" fill="none" stroke="#212121" stroke-width="2" stroke-linecap="round" stroke-linejoin="round" stroke-miterlimit="10" class="stroke-31199c"></path><path d="M362.3 388.3s5.2 1.6 5.1 6.4c0 4.8-2.2 9.6-5.1 7.3 0 0-6.3 14.2-15.9 9.4-9.6-4.8-7.9-22.2-5.3-26.1" fill="none" stroke="#212121" stroke-width="2" stroke-linecap="round" stroke-linejoin="round" stroke-miterlimit="10" class="stroke-31199c"></path><path d="M333.8 462.7s-10.9 15.4-28.5 17.2M330.8 487.1s-3.2 1.9-8.9 1.2" fill="none" stroke="#ffc107" stroke-width="2" stroke-linecap="round" stroke-linejoin="round" stroke-miterlimit="10" class="stroke-7069f6"></path><path d="M400.5 533.2s3.4 31.7-8.3 99.5M219.5 518.2s-18.7 55.4 5.1 94.9l-12.1 19.6" fill="none" stroke="#212121" stroke-width="2" stroke-linecap="round" stroke-linejoin="round" stroke-miterlimit="10" class="stroke-31199c"></path><path d="M361.5 587.9s-6.6 12.3-21.3 22.3" fill="none" stroke="#1976d2" stroke-width="2" stroke-linecap="round" stroke-linejoin="round" stroke-miterlimit="10" class="stroke-a2a1f8"></path><path d="M518.8 378.9s6.1 12 10.7 10.6c4.6-1.3 16.6-20.8 16.6-20.8" fill="#e8e7fd" class="fill-e8e7fd"></path><path d="M501.4 341.9s3.9 7.9 14.3 8.2c10.4.4 17-7.1 17-7.1s5 8.4 14.6 8.7c9.6.4 16.4-5.7 16.4-5.7s4.1 63.2-35.2 73.4c0 0-37.5-8.2-27.1-77.5z" fill="#e8e7fd" class="fill-e8e7fd"></path><path d="M518.8 378.9s6.1 12 10.7 10.6c4.6-1.3 16.6-20.8 16.6-20.8" fill="none" stroke="#1976d2" stroke-width="2" stroke-linecap="round" stroke-linejoin="round" stroke-miterlimit="10" class="stroke-a2a1f8"></path><path d="M501.4 341.9s3.9 7.9 14.3 8.2c10.4.4 17-7.1 17-7.1s5 8.4 14.6 8.7c9.6.4 16.4-5.7 16.4-5.7s4.1 63.2-35.2 73.4c0 0-37.5-8.2-27.1-77.5zM512.5 491.7l-74.8 6.5-4.7-54.6 33.5-2.9-1.8-21.3 42.5 12z" fill="none" stroke="#1976d2" stroke-width="2" stroke-linecap="round" stroke-linejoin="round" stroke-miterlimit="10" class="stroke-a2a1f8"></path><path transform="matrix(.9962 -.0867 .0867 .9962 -39.91 41.101)" d="M446.9 463.2h12.6v33.7h-12.6z" fill="none" stroke="#1976d2" stroke-width="2" stroke-linecap="round" stroke-linejoin="round" stroke-miterlimit="10" class="stroke-a2a1f8"></path><path transform="matrix(.9962 -.0867 .0867 .9962 -39.574 43.67)" d="M465.5 460.6h34.9v33.7h-34.9z" fill="none" stroke="#1976d2" stroke-width="2" stroke-linecap="round" stroke-linejoin="round" stroke-miterlimit="10" class="stroke-a2a1f8"></path><circle cx="446.1" cy="209" r="6.1" fill="#1976d2" class="fill-a2a1f8"></circle><circle cx="446.1" cy="240.3" r="6.1" fill="#1976d2" class="fill-a2a1f8"></circle><circle cx="446.1" cy="271.6" r="6.1" fill="#1976d2" class="fill-a2a1f8"></circle><path d="M414.4 312.9s-8.5-69.5-4.9-108.4c2.9-31.8 23.8-34.6 86.5-36.8 62.7-2.2 90.3 4.3 95.7 20.5 5.4 16.2 6.5 98.4-9.7 114.6-16.2 16.2-132.8 5.2-141.8 4s-23.5 17.7-25.8 6.1z" fill="none" stroke="#1976d2" stroke-width="2" stroke-linecap="round" stroke-linejoin="round" stroke-miterlimit="10" class="stroke-a2a1f8"></path><path d="M467.4 202.3s53.8-2.7 96.4 0" fill="none" stroke="#212121" stroke-width="2" stroke-linecap="round" stroke-linejoin="round" stroke-miterlimit="10" class="stroke-31199c"></path><path d="M467.4 213s21.6-1.1 48.2-1.2" fill="none" stroke="#1976d2" stroke-width="2" stroke-linecap="round" stroke-linejoin="round" stroke-miterlimit="10" class="stroke-a2a1f8"></path><circle cx="446.1" cy="209" r="6.1" fill="none" stroke="#212121" stroke-width="2" stroke-linecap="round" stroke-linejoin="round" stroke-miterlimit="10" class="stroke-31199c"></circle><path d="M467.4 233.6s53.8-2.7 96.4 0M467.4 244.3s21.6-1.1 48.2-1.2" fill="none" stroke="#212121" stroke-width="2" stroke-linecap="round" stroke-linejoin="round" stroke-miterlimit="10" class="stroke-31199c"></path><circle cx="446.1" cy="240.3" r="6.1" fill="none" stroke="#212121" stroke-width="2" stroke-linecap="round" stroke-linejoin="round" stroke-miterlimit="10" class="stroke-31199c"></circle><path d="M467.4 264.9s53.8-2.7 96.4 0" fill="none" stroke="#1976d2" stroke-width="2" stroke-linecap="round" stroke-linejoin="round" stroke-miterlimit="10" class="stroke-a2a1f8"></path><path d="M467.4 275.5s21.6-1.1 48.2-1.2" fill="none" stroke="#212121" stroke-width="2" stroke-linecap="round" stroke-linejoin="round" stroke-miterlimit="10" class="stroke-31199c"></path><circle cx="446.1" cy="271.6" r="6.1" fill="none" stroke="#212121" stroke-width="2" stroke-linecap="round" stroke-linejoin="round" stroke-miterlimit="10" class="stroke-31199c"></circle><path d="M267 402s-3.8-4.2-8.6-5" fill="none" stroke="#212121" stroke-width="2" stroke-linecap="round" stroke-linejoin="round" stroke-miterlimit="10" class="stroke-31199c"></path><path d="m254.7 211-6.5-6.5M272.2 199l-.4-5.6M249.1 227.3l-5.1-.9" fill="none" stroke="#1976d2" stroke-width="2" stroke-linecap="round" stroke-linejoin="round" stroke-miterlimit="10" class="stroke-a2a1f8"></path></svg>