<svg xmlns="http://www.w3.org/2000/svg" viewBox="0 0 2267.7 1700.8" xml:space="preserve" enable-background="new 0 0 2267.7 1700.8"><path d="M1751.1 1071.5c-86.5 90.1-227.8 161.9-435.5 186.4-42.2 5-87.2 8-135 8.9-59.3 1-117.8-1.7-174.4-7.6-179.6-18.8-340.3-69.9-449.9-134.7-143.9-85-199.5-193.7-93.5-283.7 57.1-48.6 120.4-21.2 221.9-15.3 39.5 2.3 84.9 1.3 137.9-8.7 99.6-18.7 226.3-69.1 392.7-189.3 502.2-362.8 824.6 143 535.8 444z" fill="#1976d2" class="fill-d181b6"></path><path d="m1162 1012.2.1.5c12.3 38.9 8.8 46-14.7 52.8-4.8 1.4-14.1 4.3-26.3 8.1l.1.5c-14.1 61-60.5 166.9-137.1 126h-.1c8.8 23.7 17.3 46.2 22.2 59-179.6-18.8-340.3-69.9-449.9-134.7 7.8-37.8 21.1-75 35.3-104.1 33.5-68.9 97.6-136.7 97.6-136.7l-4.4-58.2-9.5-124.6c-52.6 1.5-59.9-22-45.5-34.1-8.7.9-18.7 1.4-29.8 1.4-55.2 0-44.4-53.6-11.4-63.2 23.8-7 53.3 3 71.1 17.1 1.5-11.8 4.6-23 9.5-30.1 30.2-43.6 81.3-26.2 81.3-26.2 17.6 6.6 31 26 31 26s88.2 30.1 90.9 42.3c2.6 11.5-78.9 34.1-78.9 34.1l29.2 148.8 9.4 47.8s65.7 29.2 79.1 57c50.4-13.5 149.2-36.4 181.4-47 35.6-11.7 37.2 3.3 43.6 30 12.6-8.3 28.1-10 32.3 2.8 1.8 5.6-.3 11.1-4.6 15.8 7.3-1.3 13.7.7 16.2 8.1 2.2 6.5-.5 12.6-5.6 17.7 4 .6 7.2 2.9 8.8 7.6 1.9 5.8-.1 11.4-4.2 16.2 4.6-.2 8.6 1.8 10.8 6.9 6.1 14.1-13.8 29.5-27.9 32.4z" fill="#fffef2" class="fill-fffef2"></path><path d="M1010.2 1274.1c-1.4 0-2.7-.9-3.3-2.2-.4-1.1-41.4-107.9-53.2-146.5-.6-1.8.5-3.8 2.3-4.4 1.9-.6 3.8.5 4.4 2.3 11.7 38.3 52.6 144.9 53 146 .7 1.8-.2 3.8-2 4.5-.4.2-.8.3-1.2.3z" fill="#1a1a18" class="fill-202d37"></path><path d="M1017.4 1213.2c-11.4 0-23.1-3.2-35.1-9.6-1.7-.9-2.4-3-1.4-4.7.9-1.7 3-2.4 4.7-1.4 19.1 10.2 37.5 11.4 54.7 3.6 39.4-17.9 66.3-79.8 77.3-127.4.4-1.9 2.3-3.1 4.2-2.6 1.9.4 3.1 2.3 2.6 4.2-11.4 49.1-39.5 113.2-81.2 132.2-8.4 3.8-17 5.7-25.8 5.7zM910.9 925.5c-1.3 0-2.6-.7-3.2-2-12.6-26.3-76.7-55-77.3-55.3-1-.5-1.8-1.4-2-2.5l-38.6-196.5c-.4-1.8.7-3.6 2.5-4 .2-.1 18.9-5.3 37.8-11.9 33.3-11.6 37.8-17.1 38.5-18.3-.7-1.3-6-7.6-44.8-23.3-21.8-8.8-43.5-16.2-43.7-16.3-.7-.2-1.3-.7-1.7-1.3-.1-.2-13-18.6-29.3-24.7-1.8-.7-2.7-2.7-2.1-4.5.7-1.8 2.7-2.7 4.5-2.1 16.3 6.1 28.9 22.2 32 26.3 4.7 1.6 24.1 8.4 43.5 16.3 46.5 18.8 47.9 25.1 48.6 28.2 1.2 5.3-2.9 12-40.7 25.4-15.3 5.4-31 10.1-37.5 11.9L835 862.5c10.6 4.9 66.5 31.5 79.2 57.9.8 1.7.1 3.8-1.6 4.7-.7.3-1.2.4-1.7.4zm-42.3-290.4z" fill="#1a1a18" class="fill-202d37"></path><path d="m1162.8 1013.3-.1-.5c-6.7 1.3-12 0-12.9-5.6-1.1-6.8 2.4-14.6 7.9-21-8.7 2.2-16.3.9-16.8-5.9-.5-6.3 3-13.1 8.3-18.7-7.9 1-14.3-1-14.8-7.2-.4-6 2.6-12.2 7.4-17.5-11.9 3.8-23.2 3.1-23.2-5 0-10.5 8.2-20.9 18-27.3-6.5-26.9-8-42-43.9-30.2-32.4 10.6-131.8 33.7-182.5 47.3-16.4 4.4-27.7 7.7-30 9.4-9.6 6.7-1 26.2 4.4 44.8 35.1 8 34.5 44.7 23 50.4 1.3 6.2 1.2 12.1-2.3 15.7 12.2 44.2 10.9 93 46.9 84.4 1.4-.3 2.9-.7 4.5-1.1 32.9-8.5 118.9-36.1 164.8-50.5 12.3-3.9 21.7-6.8 26.5-8.2 23.7-7.1 27.1-14.2 14.8-53.3z" fill="#474746" class="fill-fad932"></path><path d="M1145.6 1037.6s1.7 13.5-3.8 14.6c-17.7 7.3-135.8 38.4-181.5 49.6-7.4 1.8-10.4 1.1-13.2-8.3 0 0-39.5-122.1-39.5-144.1 0-12.5 10.4-11.5 82.8-30.3 111-28.8 126.1-35.7 129.9-13.1l11.6 56.2c7 37 13.7 75.4 13.7 75.4zM1641.4 837.8c-1.6-4.4-6.6-54.8-10-90.3 23.2-6.5 27.8-24.2 21.7-49 12.8-.8 17.2-6.9 17-15.5-.4-16-17.5-25.8-31.5-30.3 4.8-21.2-1.5-57-25.2-83.8-15.2-17.2-31.5-2.4-31.5-2.4-28.6-29.3-102.3-1.5-99.2 19.3 1.1 7 6.5 11.7 14.4 14.2-20.8 32.9-73.8 68.9-74.5 77.7-.6 7.8 44.7 7.5 65 6.9 0 18.1-3.1 42.4-20.6 53.6-15.6 10 14.5 18.5 33.6 16.2-1.5-31.9-3.1-64.4-3.4-69.5.3 5.5 2.7 44.9 4.3 77.1l-.1.6c-1.4-.3-2.8-.5-4.2-.6-20-1.2-52.8 17-58.1 28.8-5.3 11.7-27.6 83.4-31.7 96.9-4.1 13.5-47 80.4-82.2 157.3s-48.1 162.6-14.1 207.8c0 0 1.6 1.8 4.7 5 207.7-24.5 349-96.3 435.5-186.4-39.9-107.8-102-211.5-109.9-233.6zm-210.4 178c5.2-37.8 10.2-76.6 10.2-76.6 17.6-20.3 29.5-34.7 32.5-51.8-.2 9.2 9 16.3 18.4 11-18.1 40-55.6 107.5-61.1 117.4zm49-223.6s10.1-5.5 21.1-4.9l.9.6c.3 6.7.6 10.7.9 15.9-7.5-5.2-22.9-11.6-22.9-11.6z" fill="#fffef2" class="fill-fffef2"></path><path d="M1582.6 599c4.4 67.4 55.7 55 55.7 55 5.4-21-.7-57.6-24.9-85-15.2-17.2-31.5-2.4-31.5-2.4-28.6-29.3-102.3-1.5-99.2 19.3 3.2 20.8 44 20.8 75.5 5.1-20.1 14.4 5.1 23.4 24.4 8z" fill="#1a1a18" class="fill-202d37"></path><path d="M1628.9 658.4c-7.5 0-18.1-1.6-27.7-8.6-12-8.8-19.3-23.8-21.6-44.5-9.7 5.6-19.9 6.4-26 3.9-3.7-1.5-5.9-4.1-6.3-7.4-.1-.7-.1-1.5.1-2.4-21.4 7.6-43.9 8.6-56.9 1.8-6.4-3.3-10.3-8.4-11.3-14.7-1.3-8.6 6.6-17.8 21.7-25.4 25.2-12.6 61.5-16.2 81.2 1 3.2-2.1 9.1-5.2 16.1-4.8 6.5.4 12.5 3.6 17.7 9.5 24.6 27.8 31.5 65.4 25.7 88.2-.3 1.3-1.3 2.2-2.6 2.5-.3-.1-4.3.9-10.1.9zm-46.3-62.9c.5 0 1 .1 1.4.3 1.2.5 2 1.7 2.1 3 1.4 21.7 7.9 36.9 19.3 45.3 11.4 8.4 25 7.6 30.1 6.9 4.3-20.8-2.7-54.8-24.6-79.6-3.9-4.5-8.3-6.9-12.9-7.1-7.5-.4-13.6 4.9-13.7 5-1.4 1.3-3.5 1.2-4.9-.2-17.8-18.2-54.7-12-75.3-1.7-11.7 5.8-18.7 12.9-17.9 18 .6 4.1 3.2 7.3 7.6 9.6 13.6 7 40.6 4 62.9-7 1.6-.8 3.6-.2 4.6 1.3.9 1.6.5 3.6-1 4.6-4.6 3.3-6 5.9-5.9 7.1.1.9 1.4 1.5 2 1.8 5.1 2.1 15.3.6 24.1-6.4.5-.6 1.3-.9 2.1-.9zM1500.5 754.4c-19 2.2-49.2-6.3-33.6-16.2 17.5-11.2 20.6-35.4 20.6-53.6 5.8-.1 9.6-.3 9.6-.3s1.7 35.4 3.4 70.1z" fill="#1a1a18" class="fill-202d37"></path><path d="M1493.9 758.3c-13.9 0-31.5-4-34.4-12.1-.8-2.3-1.2-6.7 5.5-10.9 12.6-8.1 19-25.1 19-50.6 0-1.9 1.5-3.5 3.4-3.5 5.7-.1 9.5-.3 9.5-.3 1.9-.1 3.6 1.4 3.7 3.3 0 0 1.7 35.4 3.4 70.1.1 1.8-1.3 3.4-3.1 3.6-2.2.3-4.5.4-7 .4zm-2.9-70.2c-.6 26.2-8 44.1-22.2 53.1-2.3 1.5-2.8 2.5-2.7 2.7 1.3 3.5 16.6 8.2 30.7 7.4-1.3-27.1-2.6-53.9-3.1-63.3-.8 0-1.7 0-2.7.1zM1607.8 750.3c-5.9 0-4.1-7.4 4.8-13.2 9.1-5.9 14.3-27.1 12.8-42 11.9 2.9 20.9 3.9 27.6 3.5 7.9 31.6-1.7 51.7-45.2 51.7z" fill="#1a1a18" class="fill-202d37"></path><path d="M1607.8 753.8c-3.3 0-5.8-1.7-6.6-4.4-1.3-4.5 2.5-10.7 9.6-15.3 7.1-4.7 12.7-23.8 11.2-38.7-.1-1.1.3-2.2 1.2-3 .9-.7 2-1 3.1-.8 11 2.7 19.9 3.8 26.5 3.4 1.7-.1 3.2 1 3.6 2.7 4.5 18.2 3.1 31.6-4.2 41-7.9 10.2-22.4 15.1-44.4 15.1zm21.4-54.3c.2 15.3-5.2 34.3-14.7 40.4-4.2 2.7-6 5.5-6.5 6.8 19.2 0 32.2-4.2 38.7-12.4 5.6-7.1 6.8-17.7 3.6-32.3-5.8.2-12.8-.7-21.1-2.5zM668.8 674.6c13.1.7 17-26.9 16.7-39 0 0 52.8-26.6 64.6-69.5 0 0-51.1-17.4-81.3 26.2-15.1 21.8-13.1 81.6 0 82.3z" fill="#1a1a18" class="fill-202d37"></path><path d="M669.3 678.1h-.6c-2.5-.1-6-1.5-8.8-7.2-7.6-15.4-7.4-61 6.1-80.6 16.4-23.7 38.7-29.9 54.6-31 17.1-1.1 30.2 3.2 30.7 3.4 1.8.6 2.7 2.5 2.2 4.2-10.9 39.7-54.5 65.3-64.4 70.7-.1 11-2.9 28.9-10.7 36.5-2.7 2.6-5.8 4-9.1 4zm-.3-7c1.6.1 3-.5 4.5-1.9 6-5.9 8.9-23.2 8.6-33.5 0-1.4.7-2.6 1.9-3.2.5-.3 48.8-25 61.8-64-4.7-1.2-14-2.9-25-2.1-20.7 1.5-37.3 10.9-49.1 28-12.1 17.5-12.3 59.8-5.6 73.5 1.2 2.3 2.3 3.2 2.9 3.2z" fill="#1a1a18" class="fill-202d37"></path><path d="M674.2 652.4c-1.2 2.9-5.8 6-13.6 8.6-13.5-2.7-24.6.5-31.2 6.1-8.7.9-18.7 1.4-29.8 1.4-55.2 0-44.4-53.6-11.4-63.2 39.9-11.7 95.6 24.2 86 47.1z" fill="#1a1a18" class="fill-202d37"></path><path d="M599.6 672c-23.8 0-39.5-10.2-42-27.2-2.6-18.1 10.7-37.3 29.6-42.9 28.3-8.3 65.5 6.4 82.5 25.3 8.3 9.2 11 18.6 7.7 26.5-1.7 4.1-7 7.6-15.7 10.6-.6.2-1.2.2-1.8.1-11.1-2.3-21.7-.3-28.3 5.3-.5.5-1.2.7-1.9.8-9.2 1-19.3 1.5-30.1 1.5zm5.4-65.5c-5.4 0-10.8.7-15.8 2.1-17 5-26.5 22.2-24.6 35.1 1.9 13.5 14.7 21.2 35 21.2 10.1 0 19.7-.4 28.4-1.3 8-6.2 19.9-8.6 32.4-6.3 6.9-2.4 10-4.9 10.6-6.4 2.9-7.1-2.8-15-6.5-19.1-12.5-13.8-37-25.3-59.5-25.3zM1545.4 661.7c-2.1-.9-3-3.4-2.1-5.5l4.4-9.7c.9-2.1 3.4-3 5.5-2.1 2.1.9 3 3.4 2.1 5.5l-4.4 9.7c-.9 2.1-3.4 3-5.5 2.1zM770.5 643.8c-2.3.3-4.4-1.3-4.7-3.5l-1.5-10.6c-.3-2.3 1.3-4.4 3.5-4.7 2.3-.3 4.4 1.3 4.7 3.5l1.5 10.6c.3 2.2-1.3 4.3-3.5 4.7zM737.6 650.9c-2.3.3-4.4-1.3-4.7-3.5l-1.5-10.6c-.3-2.3 1.3-4.4 3.5-4.7 2.3-.3 4.4 1.3 4.7 3.5l1.5 10.6c.4 2.2-1.2 4.3-3.5 4.7zM1515.2 658.6c-2.1-.9-3-3.4-2.1-5.5l4.4-9.7c.9-2.1 3.4-3 5.5-2.1 2.1.9 3 3.4 2.1 5.5l-4.4 9.7c-.9 2.1-3.4 3.1-5.5 2.1zM675.6 441.4c1.5 3.5 1.9 6.7 1.3 9.6-.6 2.8-2.4 5.4-5.3 7.8l3.9 9.2c.1.3.1.5 0 .8-.1.3-.3.5-.6.6l-12.2 5.1c-.3.1-.5.1-.8 0-.3-.1-.5-.3-.6-.6l-3.4-8.2c-2.3.9-4.5 1.6-6.4 2.1-.2.1-.5 0-.8-.1-.3-.1-.4-.3-.5-.6l-3.2-10.2c-.1-.3-.1-.6.1-.9.2-.3.4-.4.7-.5.8-.1 1.6-.3 2.5-.5.8-.2 1.9-.5 3.3-.9 1.3-.4 2.5-.8 3.6-1.2 1.2-.5 2.1-1 2.8-1.7.7-.7 1.1-1.3 1.2-1.9.1-.6.2-1.2.2-1.6 0-.4-.1-.8-.2-1.1-.1-.3-.4-.7-.7-1-.3-.3-.8-.7-1.4-1.2-.6-.4-1.6-.7-2.8-.9-1.2-.2-2.6-.1-4.1.1-1.7.3-3.5.3-5.3 0-1.8-.3-3.6-.8-5.4-1.6-1.8-.8-3.5-2-5.1-3.7-1.6-1.6-2.9-3.6-3.8-5.9-1.4-3.2-1.7-6.3-.9-9.2.7-2.9 2.4-5.5 5-7.9l-4-9.5c-.1-.3-.1-.5 0-.8.1-.3.3-.5.6-.6l12.2-5.1c.3-.1.5-.1.8 0 .3.1.5.3.6.6l3.4 8.2c2.2-.8 4.4-1.6 6.7-2.2.2-.1.5 0 .8.1.3.1.4.3.5.6l3.2 10.2c.1.3 0 .6-.1.8-.2.3-.4.4-.7.5-3.7.7-6.9 1.6-9.7 2.7-1.2.4-2.1 1-2.8 1.7-.7.7-1.1 1.3-1.2 2-.1.7-.2 1.2-.2 1.6 0 .4.1.8.2 1.1.1.3.3.6.6 1 .3.3.8.7 1.4 1.2.7.4 1.6.7 2.8.9 1.2.2 2.6.1 4.1-.1 1.7-.2 3.5-.2 5.3 0 1.8.2 3.6.8 5.4 1.6 1.8.8 3.5 2 5 3.7 1.8 1.7 3.1 3.7 4 5.9z" fill="#1a1a18" class="fill-202d37"></path><path d="M662.3 476.1c-.3 0-.6-.1-1-.2-.6-.3-1.1-.7-1.4-1.4l-2.9-6.9c-1.8.7-3.6 1.2-5.2 1.6-.6.2-1.3.1-1.8-.2-.6-.3-1-.8-1.2-1.3 0 0 0-.1-.1-.1l-3.2-10.2c-.2-.7-.1-1.5.3-2.1.4-.6 1-1 1.8-1.2.8-.1 1.6-.3 2.4-.5.8-.2 1.9-.5 3.2-.8 1.3-.4 2.4-.8 3.4-1.2 1-.4 1.8-.9 2.4-1.4.6-.6.8-1 .8-1.2.1-.6.1-1 .1-1.2 0-.4-.1-.5-.1-.6-.1-.2-.2-.4-.4-.6-.2-.2-.5-.5-1.1-.9-.3-.2-.9-.5-2.1-.7-1-.1-2.3-.1-3.6.1-1.9.3-3.8.3-5.8 0-1.9-.3-3.9-.9-5.8-1.7-2-.9-3.8-2.2-5.5-4-1.7-1.8-3.1-3.9-4.1-6.4-1.5-3.5-1.8-6.9-1-10.1.7-2.9 2.3-5.5 4.7-7.9l-3.6-8.5c-.3-.6-.3-1.3 0-1.9.2-.7.7-1.2 1.4-1.5L645 398c.6-.3 1.3-.3 2 0s1.1.7 1.4 1.4l2.9 6.9 5.4-1.8c.6-.2 1.2-.1 1.8.2.7.3 1.1.9 1.3 1.6l3.2 10.2c.2.7.1 1.4-.2 2-.4.7-1 1.1-1.8 1.2-3.5.7-6.7 1.5-9.4 2.6-1 .4-1.8.8-2.3 1.4-.5.4-.7.9-.8 1.2-.1.7-.2 1-.1 1.2 0 .2.1.5.1.6 0 .1.1.3.4.6.1.2.5.5 1.1.9.3.2 1 .5 2.2.7 1 .1 2.3.1 3.6-.1 1.9-.3 3.8-.3 5.7 0 2 .3 3.9.8 5.8 1.7 2 .9 3.8 2.2 5.5 4 1.7 1.8 3 3.9 4.1 6.3 1.6 3.8 2.1 7.3 1.4 10.5-.6 2.9-2.3 5.5-4.9 7.9l3.4 8.2c.3.6.3 1.3 0 1.9-.3.6-.7 1.1-1.4 1.4l-12.2 5.1c-.2.2-.5.3-.9.3zm-4.3-11.8c.6 0 1.1.3 1.4.9l3.3 7.8 11.3-4.8-3.7-8.8c-.3-.6-.1-1.3.4-1.7 2.6-2.1 4.2-4.5 4.8-7 .5-2.5.1-5.4-1.2-8.7-.9-2.1-2.1-3.9-3.5-5.4-1.4-1.5-2.9-2.6-4.6-3.3-1.7-.7-3.3-1.2-5-1.5-1.7-.2-3.3-.2-4.9 0-1.6.3-3.2.3-4.5.1-1.4-.2-2.5-.6-3.4-1.1-.8-.5-1.3-1-1.7-1.4-.4-.5-.7-.9-.9-1.4-.2-.5-.3-1.1-.4-1.7 0-.6 0-1.2.2-2 .2-.9.8-1.9 1.7-2.7.8-.8 1.9-1.5 3.3-2 2.7-1.1 5.9-2 9.5-2.7l-2.9-9.3c-2 .6-4.1 1.3-6.1 2-.8.3-1.6-.1-1.9-.8l-3.3-7.8-11.4 4.8 3.8 9.1c.2.6.1 1.3-.4 1.7-2.4 2.2-3.9 4.6-4.6 7.1-.6 2.6-.3 5.3.9 8.2.9 2.1 2.1 3.9 3.5 5.4 1.4 1.5 3 2.6 4.6 3.3 1.7.7 3.4 1.2 5 1.5 1.6.2 3.3.2 4.9 0 1.7-.3 3.2-.3 4.5-.1 1.4.2 2.6.6 3.4 1.2.8.5 1.3 1 1.7 1.4.4.5.7 1 .9 1.4.2.5.3 1 .3 1.6 0 .6 0 1.2-.2 2-.2.9-.8 1.8-1.7 2.7-.8.8-1.9 1.5-3.3 2-1.1.5-2.4.9-3.7 1.3-1.4.4-2.5.7-3.3.9-.7.2-1.4.3-2.1.4l2.9 9.3c1.8-.5 3.8-1.2 5.9-1.9h.5zm16.1 4.3zm-13.6-51.8zm-3.5-9.7zM766.4 446.2c-1 3.7-2.6 6.5-4.8 8.4-2.2 1.9-5.2 2.9-9 2.9l-2.6 9.7c-.1.3-.2.5-.5.6-.2.1-.5.2-.8.1l-12.8-3.4c-.3-.1-.5-.2-.6-.5-.1-.2-.2-.5-.1-.8l2.3-8.6c-2.4-.8-4.5-1.5-6.4-2.3-.2-.1-.4-.3-.5-.5-.1-.3-.1-.5-.1-.8l3.8-10c.1-.3.3-.5.6-.6.3-.1.6-.1.9.1.7.4 1.5.8 2.3 1.1.8.4 1.8.8 3.1 1.3s2.5.9 3.6 1.2c1.2.4 2.3.5 3.3.4 1-.1 1.7-.4 2.2-.8.5-.4.9-.8 1.1-1.2.2-.4.4-.7.5-1 .1-.4.1-.8.1-1.2 0-.5-.2-1.1-.4-1.8s-.8-1.5-1.6-2.4c-.8-.9-1.9-1.7-3.3-2.4-1.6-.8-3-1.9-4.2-3.2-1.3-1.3-2.4-2.8-3.3-4.6-.9-1.7-1.5-3.7-1.8-6-.2-2.3 0-4.6.6-7 .9-3.4 2.5-6 4.9-7.8 2.3-1.8 5.3-2.9 8.8-3.1l2.7-9.9c.1-.3.2-.5.5-.7.2-.2.5-.2.8-.1l12.8 3.4c.3.1.5.2.7.5.2.3.2.5.1.8l-2.3 8.6c2.3.7 4.5 1.5 6.6 2.3.2.1.4.3.6.5.1.3.1.5 0 .8l-3.8 10c-.1.3-.3.5-.6.6-.3.1-.6.1-.8 0-3.3-1.7-6.5-3-9.3-3.8-1.2-.4-2.3-.5-3.2-.4-1 .1-1.7.4-2.2.8-.5.4-.9.8-1.1 1.2-.2.3-.4.7-.5 1.1-.1.3-.1.7-.1 1.2s.2 1.1.4 1.8c.3.7.8 1.6 1.6 2.4.8.9 1.9 1.7 3.3 2.4 1.5.9 2.9 1.9 4.2 3.3 1.3 1.3 2.4 2.8 3.3 4.6.9 1.7 1.5 3.7 1.7 6 .2 2 0 4.4-.7 6.8z" fill="#1a1a18" class="fill-202d37"></path><path d="M749.1 469.4c-.2 0-.5 0-.7-.1l-12.8-3.4c-.7-.2-1.2-.6-1.5-1.2-.3-.6-.4-1.3-.2-1.9l1.9-7.2c-1.9-.6-3.6-1.2-5.1-1.9-.6-.3-1.1-.7-1.3-1.3-.3-.6-.3-1.2-.1-1.8v-.1l3.8-10c.3-.7.8-1.2 1.5-1.5.7-.3 1.4-.2 2.1.1.7.4 1.4.7 2.2 1.1.8.4 1.8.8 3 1.3s2.4.9 3.4 1.2c1.1.3 2 .4 2.7.4.8-.1 1.2-.3 1.4-.4.5-.4.7-.7.8-.9.2-.3.3-.5.3-.6.1-.2.1-.4.1-.7 0-.2-.1-.7-.3-1.4-.1-.4-.4-1-1.3-1.8-.7-.8-1.7-1.5-2.9-2.1-1.7-.9-3.2-2.1-4.6-3.5-1.4-1.4-2.5-3.1-3.5-4.9-1-1.9-1.7-4.1-1.9-6.6-.3-2.4 0-5 .7-7.5 1-3.7 2.8-6.6 5.4-8.6 2.3-1.8 5.2-3 8.6-3.4l2.4-8.9c.2-.6.6-1.2 1.1-1.5.6-.4 1.3-.5 2-.3l12.8 3.4c.7.2 1.2.6 1.6 1.2.4.6.4 1.3.3 2l-1.9 7.2c1.8.6 3.6 1.3 5.3 1.9.6.3 1 .7 1.3 1.3.3.7.4 1.4.1 2.1l-3.8 10c-.3.7-.8 1.2-1.4 1.4-.7.3-1.5.3-2.2-.1-3.2-1.7-6.2-2.9-9-3.7-1-.3-1.9-.4-2.6-.3-.6.1-1.1.2-1.4.5-.5.4-.8.7-.9.9l-.3.6c0 .1-.1.3 0 .7 0 .2.1.6.3 1.4.1.4.4 1 1.3 1.9.7.8 1.7 1.5 2.9 2.1 1.6.9 3.2 2.1 4.5 3.5 1.4 1.4 2.6 3.1 3.6 4.9 1 1.9 1.7 4.1 1.9 6.5.2 2.4 0 4.9-.7 7.5-1.1 4-2.9 7-5.3 9.1-2.2 1.9-5.2 3-8.8 3.2l-2.3 8.6c-.2.7-.6 1.2-1.2 1.5-.5 0-.9.1-1.3.1zm-12.3-6.3 11.9 3.2 2.5-9.2c.2-.6.7-1.1 1.4-1.1 3.4-.1 6.1-.9 8-2.6 2-1.7 3.4-4.2 4.3-7.6.6-2.2.8-4.4.6-6.4-.2-2-.7-3.9-1.6-5.4-.9-1.6-1.9-3-3.1-4.2-1.2-1.2-2.5-2.2-3.9-3-1.5-.8-2.7-1.7-3.6-2.7-1-1-1.7-2-2-3-.3-.9-.5-1.6-.5-2.2 0-.6 0-1.2.1-1.6.1-.5.4-1 .7-1.5.3-.5.8-.9 1.4-1.5.7-.6 1.7-1 3-1.1 1.1-.1 2.4 0 3.8.4 2.8.8 5.9 2 9.1 3.7l3.4-9.1c-2-.8-4-1.5-6.1-2.2-.8-.2-1.2-1-1-1.8l2.2-8.2-11.9-3.2-2.6 9.5c-.2.6-.7 1.1-1.3 1.1-3.2.2-5.9 1.2-8 2.8-2.1 1.6-3.5 4-4.4 7-.6 2.2-.8 4.4-.6 6.5.2 2.1.7 3.9 1.6 5.4.9 1.6 1.9 3 3.1 4.2 1.2 1.2 2.4 2.2 3.9 2.9 1.5.8 2.7 1.7 3.7 2.7 1 1 1.7 2 2 3 .3.9.4 1.6.5 2.2 0 .6 0 1.2-.2 1.7-.1.5-.4 1-.7 1.5-.3.5-.8 1-1.4 1.5-.7.6-1.7 1-3 1.1-1.1.1-2.4 0-3.9-.5-1.1-.3-2.4-.7-3.7-1.3-1.3-.5-2.4-1-3.2-1.3-.7-.3-1.3-.6-1.9-.9l-3.4 9.2c1.7.7 3.7 1.4 5.8 2.1.8.2 1.2 1 1 1.8l-2 8.1zm32.8-45.7zm3.2-9.8zM1501.4 765.5c-1.9 0-3.4-1.5-3.5-3.3-1.4-28.7-3.4-63.4-4.1-74.3-1.6.1-3.7.1-6.2.2-59.4 1.6-65-4.4-66.9-6.3-1.5-1.6-1.7-3.3-1.6-4.4.4-5 7.8-11.7 24.3-26.4 20.9-18.5 49.6-43.8 56.8-65.2.6-1.8 2.6-2.8 4.4-2.2 1.8.6 2.8 2.6 2.2 4.4-7.8 23.1-37.3 49.2-58.8 68.2-9.3 8.2-19.8 17.5-21.7 21.1 3.4 2.1 19.4 4.8 61.1 3.7 5.7-.1 9.5-.3 9.5-.3 1.9-.1 3.5 1.4 3.7 3.3 0 .4 2.6 43.4 4.3 77.8.1 1.9-1.4 3.6-3.3 3.7h-.2zM1502.8 807.3c-1.9 0-3.4-1.5-3.5-3.3-.1-2.5-.2-4.6-.4-7-.2-2.6-.3-5.4-.5-8.9-.1-1.9 1.4-3.6 3.3-3.7 2-.1 3.6 1.4 3.7 3.3.2 3.5.3 6.3.5 8.9.1 2.4.3 4.6.4 7 .1 1.9-1.4 3.6-3.3 3.7h-.2zM1431 1019.3c-.6 0-1.2-.1-1.7-.4-1.7-.9-2.3-3.1-1.4-4.8 7.1-12.8 43.4-78.3 60.9-117.2.8-1.8 2.9-2.5 4.6-1.8 1.8.8 2.5 2.9 1.8 4.6-17.6 39.1-54.1 104.9-61.2 117.7-.6 1.3-1.8 1.9-3 1.9zM1649.9 702.1c-6.8 0-15.2-1.2-25.3-3.7-1.9-.5-3-2.3-2.6-4.2.5-1.9 2.3-3 4.2-2.6 11 2.7 19.9 3.8 26.5 3.4 12.3-.8 13.9-6.5 13.7-11.9-.4-18.3-27.3-27.9-40.2-29.7-1.9-.3-3.3-2-3-3.9.3-1.9 2-3.3 3.9-3 11.8 1.6 45.6 11.8 46.2 36.5.2 8.1-3.2 18-20.3 19.1h-3.1z" fill="#1a1a18" class="fill-202d37"></path><path d="M1652.1 686.6c-.9 0-1.7-.3-2.4-1-2-1.6-14.5-6.6-22.7-4.9-1.9.4-3.7-.8-4.1-2.7s.8-3.7 2.7-4.1c11-2.2 26.4 4.2 29 6.8 1.4 1.4 1.4 3.6 0 4.9-.7.6-1.6 1-2.5 1zm-2.5-1.1s0 .1 0 0c0 .1 0 0 0 0zM1639.4 1172.5c-1.9 0-3.4-1.5-3.5-3.4 0-.6-1.7-56.6-22.5-151.3-.4-1.9.8-3.8 2.7-4.2 1.9-.4 3.8.8 4.2 2.7 18 82.1 21.8 135.5 22.5 149.1 54.2-1.5 110.8-31.4 122.9-38.1-25.3-90.8-75.7-187-105.9-244.7-11.1-21.2-19.1-36.4-21.7-43.7-2.5-7-11.2-102.6-11.6-106.7-.2-1.9 1.2-3.6 3.2-3.8 1.9-.2 3.6 1.2 3.8 3.2 4.3 47.2 9.8 100.7 11.2 105 2.4 6.8 10.3 21.9 21.3 42.8 30.6 58.5 81.8 156.3 107.1 248.7.4 1.5-.2 3.1-1.6 3.9-2.8 1.7-68.4 40.1-132.1 40.5z" fill="#1a1a18" class="fill-202d37"></path><path d="M1542.1 916.6c-.8 0-1.7-.3-2.3-.9-.1-.1-13.9-12.5-29.2-22.5-1.6-1.1-2.1-3.2-1-4.8 1.1-1.6 3.2-2.1 4.8-1 12.4 8.1 23.7 17.6 28.1 21.4 11.9-7.3 68.8-43 87.2-64.7 1.3-1.5 3.5-1.7 4.9-.4 1.5 1.3 1.7 3.5.4 4.9-21.2 25-88.2 65.7-91.1 67.4-.5.4-1.2.6-1.8.6zM1563.8 714.2c-6.3 0-13.7-2.6-21.4-5.4-7-2.5-14.3-5.1-19.8-5.1-1.9 0-3.5-1.6-3.5-3.5s1.6-3.5 3.5-3.5c6.7 0 14.5 2.8 22.1 5.5 7.9 2.8 16 5.7 21.2 4.8 1.9-.3 3.7.9 4.1 2.8.3 1.9-.9 3.7-2.8 4.1-1.2.2-2.3.3-3.4.3z" fill="#1a1a18" class="fill-202d37"></path><path d="M1553.5 708.2c-1 0-2-.5-2.7-1.3-8.3-10.4-13.5-10.8-15.4-10.5-1.7.3-2.7 1.4-3.1 2.4-.7 1.8-2.7 2.7-4.5 2-1.8-.7-2.7-2.7-2-4.5 1.4-3.6 4.6-6.2 8.6-6.8 4.7-.7 12.3.9 22 13.1 1.2 1.5 1 3.7-.6 4.9-.7.4-1.5.7-2.3.7zM1545.4 727.6c-1.6 0-3.1-.2-4.6-.6-6.3-1.7-11.9-6.9-15.7-14.7-.8-1.7-.1-3.8 1.6-4.7 1.7-.8 3.8-.1 4.7 1.6 2.9 5.9 6.8 9.8 11.2 11 3.8 1 7.8 0 12.1-3 1.6-1.1 3.8-.7 4.9.9 1.1 1.6.7 3.8-.9 4.9-4.5 3-9 4.6-13.3 4.6zM1513.3 626.1c-.4 0-.8-.1-1.2-.2-1.8-.7-2.7-2.7-2.1-4.5 2.1-5.6 8.7-10.5 15.3-11.3 4.7-.6 8.8 1 11.1 4.5 1.1 1.6.7 3.8-.9 4.9-1.6 1.1-3.8.7-4.9-.9-.9-1.2-2.4-1.7-4.5-1.5-4 .5-8.4 3.6-9.6 6.8-.4 1.3-1.8 2.2-3.2 2.2zM1569.3 640.9c-1.5 0-2.9-1-3.4-2.5-1.1-4-5.2-5.9-6.9-6.5-3.6-1.4-6.8-1.1-7.7-.4-1.6 1.1-3.8.6-4.8-1-1.1-1.6-.6-3.8 1-4.8 3.2-2.1 8.7-2.2 14-.3 5.7 2.1 9.8 6.2 11.2 11.1.5 1.9-.5 3.8-2.4 4.3-.4 0-.7.1-1 .1zM1774.8 1279c-1.9 0-3.5-1.5-3.5-3.4 0-.8-1.7-76-14.1-140.9-.4-1.9.9-3.7 2.8-4.1 1.9-.4 3.7.9 4.1 2.8 12.5 65.5 14.3 141.3 14.3 142.1-.1 1.9-1.6 3.5-3.6 3.5zM1662.9 1270.3c-2 0-3.5-1.6-3.5-3.6.8-53.2-9.8-96.4-9.9-96.9-.5-1.9.7-3.8 2.6-4.2 1.9-.5 3.8.7 4.2 2.6.1.4 10.9 44.5 10.1 98.7 0 1.8-1.6 3.4-3.5 3.4zM1311 1256.3c-1.1 0-2.1-.5-2.8-1.4-16.5-21.9-23.3-54.6-19.6-94.4 3.3-36.2 14.8-76.6 33.3-116.9 21.3-46.5 45.8-90 61.9-118.9 10.4-18.4 18.5-33 20.1-38 3.1-10.2 26.3-84.9 31.9-97.3 6-13.2 40-32.1 61.5-30.8 14.7.9 29.1 13.2 34.4 24.7 3.1 6.6 3.2 12.5.1 16.7-3.9 5.3-12.7 1.7-20-2.1-5.2-2.7-10-5.8-11.9-7.1-4-.1-7.8.7-10.9 1.6 6.2 2.9 14.3 7 18.2 10.5 5 4.5 12 16.1 11.9 27.5-.1 7.3-3.1 13.7-8.6 18.6-1.5 1.3-3.7 1.1-4.9-.3-1.3-1.5-1.1-3.7.3-4.9 4.1-3.5 6.2-8 6.2-13.4.1-9.5-6.2-19.2-9.6-22.3-4.6-4.2-18.8-10.5-23.9-12.6-1.2-.5-2.1-1.7-2.2-3-.1-1.3.6-2.6 1.8-3.3.4-.2 11.1-5.9 23-5.3.6 0 1.3.2 1.8.6 9.6 6.6 20.5 11.8 23.3 11.2 1.3-2 .9-5.4-1-9.4-4.4-9.4-16.6-20-28.5-20.7-19.2-1.1-50.3 16.8-54.7 26.7-5 11.1-26.5 79.9-31.5 96.4-1.7 5.7-9.3 19.1-20.7 39.4-16.1 28.7-40.5 72.2-61.7 118.4-18.1 39.6-29.5 79.3-32.7 114.7-3.5 38.1 2.8 69.1 18.2 89.6 1.2 1.5.9 3.7-.7 4.9-.6.4-1.3.6-2 .6z" fill="#1a1a18" class="fill-202d37"></path><path d="M1504.3 875c-1 0-2-.4-2.7-1.2-1.2-1.5-1.1-3.7.4-4.9.3-.3 7.6-6.7 4.2-18.1-3.2-10.7-18.4-27.6-26.9-31.9-1.7-.9-2.4-3-1.6-4.7.9-1.7 3-2.4 4.7-1.6 10.1 5.1 26.8 23.5 30.5 36.1 4.7 15.9-5.9 25.1-6.4 25.5-.6.6-1.4.8-2.2.8z" fill="#1a1a18" class="fill-202d37"></path><path d="M1485.5 903.7c-1.7 0-3.5-.3-5.2-.9-6.2-2.3-10.3-8.5-10.2-15.5 0-1.9 1.6-3.5 3.6-3.4 1.9 0 3.5 1.6 3.4 3.6-.1 3.9 2.2 7.5 5.6 8.7 3.9 1.5 8.4-.4 12.2-5 5.2-6.3 6.9-13.8 5-21.6-2.8-10.8-12.2-21.1-23.6-25.7-1.8-.7-2.7-2.8-2-4.5.7-1.8 2.8-2.7 4.5-1.9 13.3 5.3 24.5 17.6 27.8 30.5 2.6 10 .4 19.6-6.4 27.7-4.2 5.2-9.5 8-14.7 8z" fill="#1a1a18" class="fill-202d37"></path><path d="M1403.4 1195.1h-.6c-1.9-.3-3.2-2.1-2.9-4 .1-.8 13.6-83.2 19.6-120.6 6-37.3 18-130.8 18.2-131.7.1-.7.4-1.3.8-1.8 22.4-25.8 34.9-41.5 31.9-64.9-.2-1.9 1.1-3.7 3-3.9 1.9-.2 3.7 1.1 3.9 3 3.3 26.1-9.6 42.8-32.9 69.6-1.4 10.4-12.4 95.6-18.1 130.9-6 37.4-19.5 119.8-19.6 120.6-.2 1.6-1.6 2.8-3.3 2.8zM992.9 637c-.7 0-1.4-.2-2-.6-.9-.6-1.4-1.5-1.5-2.5-.5-4.2-11.9-73.6-27.7-125.3-.6-1.8.5-3.8 2.3-4.4 1.8-.6 3.8.5 4.4 2.3 14.1 46.1 24.8 106.2 27.4 122.6 41.5-11.4 83.4-20 124.5-25.5 1.9-.3 3.7 1.1 3.9 3 .3 1.9-1.1 3.7-3 3.9-42.1 5.6-84.9 14.5-127.4 26.3-.2.1-.5.2-.9.2z" fill="#1a1a18" class="fill-202d37"></path><path d="M1006.1 598.3c-.7 0-1.4-.2-2-.7-1.6-1.1-1.9-3.3-.8-4.9 3-4.2 6.2-8.8 9.2-13.3 12.3-18.1 17-24.4 21.5-24.4.7 0 1.7 0 2.9.1 12.6.6 15.9-.6 16.7-1.4v-3.1c-.2-12.8 0-24.6 4.2-29.3 4.4-4.9 33.7-23.5 37.1-25.6 1.6-1 3.8-.5 4.8 1.1s.5 3.8-1.1 4.8c-12.2 7.7-32.7 21.2-35.6 24.4-2.8 3.1-2.5 19.2-2.4 24.6v3.4c0 1.9-.7 3.5-2.1 4.9-4.1 3.9-13.1 3.8-21.9 3.4-.8 0-1.6-.1-2.1-.1-2.8 1.7-10.5 13-16.1 21.4-3.1 4.6-6.3 9.3-9.3 13.5-.8.7-1.9 1.2-3 1.2z" fill="#1a1a18" class="fill-202d37"></path><path d="M1072 488.1c-5.7 5.2 24.7 33.9 30.5 31.6 4.5-1.8 21.7-38.3 16-43.6-5.4-5.2-38.3 4.6-46.5 12z" fill="#1a1a18" class="fill-202d37"></path><path d="M1101.8 523.4c-2.4 0-6.7-1.4-15.3-8.6-6.6-5.6-12.8-12.3-16-17.4-3.4-5.3-3.7-9.3-.9-11.8 5.2-4.8 17.1-9.2 25.7-11.6 9.2-2.5 21.1-4.7 25.6-.5 2.2 2.1 2.8 5.7 1.7 11.3-2.1 11.2-13.1 35.8-18.8 38.2-.3.1-1 .4-2 .4zm-.9-6.8zm-26-26.3c.4 2 4 7.6 11.3 14.7 7.4 7.2 13.1 10.7 15.1 11.2 1.6-1.8 5.7-8.5 9.8-18.2 4.8-11.5 5.6-17.9 5-19.5-1.3-.7-7.4-1-19.4 2.3-9.4 2.7-18.2 6.5-21.8 9.5zm-2.9-2.2zM640.3 1313.2c-3.2 0-6.4-.2-9.6-.6-26.7-3.2-49.8-19.3-66.8-46.7-17.4-28-22.5-69.8-14.9-120.9 6.1-41.3 20.4-87.1 39.3-125.8 31-63.7 88.6-127.2 97.1-136.4l-13.6-178c-39.3.3-48.8-13.4-51.1-19.4-2.7-7.2-.2-15.2 6.6-21 8.2-6.9 21-9.5 34.2-6.8 2 .4 4.1.9 6.2 1.6 1.8.6 2.9 2.6 2.3 4.4-.6 1.8-2.6 2.9-4.4 2.3-1.8-.6-3.7-1.1-5.4-1.4-11.1-2.3-21.7-.3-28.3 5.3-4.5 3.8-6.2 8.7-4.6 13.1 2.9 7.7 17 15.7 47.7 14.8 1.8-.1 3.4 1.4 3.6 3.2l14 182.8c.1 1-.3 2-.9 2.7-.6.7-64.1 68.2-96.9 135.8-18.5 38.1-32.6 83.2-38.6 123.8-7.4 49.5-2.5 89.6 14 116.2 15.9 25.5 37.2 40.5 61.7 43.4 30.7 3.6 65.4-12 97.9-44.1 57.2-56.5 92.8-110.3 96.3-119.2-1.2-1.6-4.8-5.2-8.3-8.7-12.9-12.9-36.5-36.4-49.7-65.2-18.8 14.1-108.4 83.2-154.1 156.4-1 1.6-3.2 2.1-4.8 1.1-1.6-1-2.1-3.2-1.1-4.8 51.8-82.9 158.4-160.2 159.5-161 .9-.6 2-.8 3-.5 1 .3 1.9 1 2.3 2 12.2 29.4 36.8 53.9 50 67 8.4 8.4 10.6 10.7 10.6 13.4 0 5.3-17.2 29.7-26.3 41.9-14.5 19.5-38.9 49.6-72.3 82.6-31.3 30.5-64.3 46.7-94.6 46.7z" fill="#1a1a18" class="fill-202d37"></path><path d="M658 682.3c-.4 0-.8-.1-1.2-.2-6-2.1-12.2-2.5-17-1-1.8.6-3.8-.5-4.4-2.3-.6-1.9.5-3.8 2.3-4.4 8.5-2.6 17.1-.4 21.4 1.1 1.8.6 2.8 2.6 2.1 4.5-.4 1.4-1.8 2.3-3.2 2.3zM748.6 735.2c-9.7 3.5-20.9 3.8-29.2-2.4-7.8-5.8-12.3-13.6-14.2-21.3-2.9-11.4-.3-22.6 5-26.7 9.1-7 17.5 3 29.3 11 12.9 8.7 25.1 2.8 29.7 15.7 3 8.4-7.5 19-20.6 23.7z" fill="#1a1a18" class="fill-202d37"></path><path d="M735.1 741.2c-6.7 0-12.9-1.9-17.8-5.6-9.8-7.3-13.9-16.7-15.5-23.3-3.2-12.3-.5-25.1 6.2-30.3 9.3-7.2 18.1-.5 26.6 5.9 2.2 1.6 4.4 3.3 6.7 4.9 4.8 3.2 9.4 4.2 13.9 5.1 6.8 1.4 13.7 2.9 17.1 12.3 4 11.1-8.4 23-22.7 28.2-4.9 1.9-9.8 2.8-14.5 2.8zm13.5-6zm-32-49.2c-1.5 0-2.9.5-4.3 1.6-3.9 3-6.4 12.6-3.7 23 1.4 5.5 4.8 13.3 13 19.4 6.4 4.8 15.9 5.5 25.9 1.9 11.8-4.2 20.6-13.4 18.5-19.2-2-5.5-5.1-6.3-12-7.8-4.7-1-10.5-2.2-16.4-6.2-2.5-1.7-4.8-3.4-7-5.1-6.6-4.9-10.6-7.6-14-7.6z" fill="#1a1a18" class="fill-202d37"></path><path d="M748.6 735.2c-9.7 3.5-20.9 3.8-29.2-2.4-7.8-5.8-12.3-13.6-14.2-21.3 15-5.2 34.7-.1 43.4 23.7z" fill="#fffef2" class="fill-fffef2"></path><path d="M735.1 741.2c-6.7 0-12.9-1.9-17.8-5.6-9.8-7.3-13.9-16.7-15.5-23.3-.4-1.8.5-3.6 2.2-4.2 16.5-5.7 38.5-.1 47.9 25.8.3.9.3 1.8-.1 2.7-.4.8-1.1 1.5-2 1.8-5.1 1.9-10 2.8-14.7 2.8zm-25.6-27.3c1.8 5 5.3 11.2 12 16.1 5.7 4.2 13.7 5.3 22.4 3-7.7-17.1-22-21.9-34.4-19.1zM734.5 836.2c-12.2 0-24.8-.7-38.3-1.7-1.9-.2-3.4-1.8-3.2-3.8.2-1.9 1.8-3.4 3.8-3.2 41.6 3.3 74.8 2.8 111.4-10 1.8-.6 3.8.3 4.5 2.1.6 1.8-.3 3.8-2.1 4.5-25.9 8.9-49.9 12.1-76.1 12.1zM719.2 902.7c-10.2 0-20.9-7.6-31.2-15l-1.1-.8c-1.6-1.1-1.9-3.3-.8-4.9s3.3-1.9 4.9-.8l1.1.8c10.4 7.4 21.1 15 29.4 13.5 3.9-.7 7.3-3.4 10.5-8.2 5.4-8.1 9.1-16.4 12-23 4.5-10 7.7-17.2 14-17.4 5.4-.1 10.6 6 18.6 16.2 4.9 6.1 10.4 13.1 14.7 15.8 3.3 2 6.6 2.5 9.9 1.4 5.1-1.7 9.8-7.2 12.8-14.9.7-1.8 2.7-2.7 4.5-2 1.8.7 2.7 2.7 2 4.5-3.7 9.7-9.9 16.6-17.1 19-5.3 1.8-10.7 1.1-15.8-2.1-5.4-3.4-11.1-10.5-16.6-17.4-3.9-5-10.6-13.3-12.9-13.5-1.9.1-5.3 7.7-7.8 13.3-3.1 6.9-6.9 15.5-12.6 24.1-4.2 6.4-9.3 10.1-15.1 11.2-1 .1-2.2.2-3.4.2z" fill="#1a1a18" class="fill-202d37"></path><circle cx="782.3" cy="913.3" r="6.8" fill="#1a1a18" class="fill-202d37"></circle><path d="M797.7 953.3c-3.7.9-5.8 5.4-4.7 10 1.1 4.7 5 7.7 8.7 6.8 3.7-.9 5.8-5.4 4.7-10-1-4.6-4.9-7.7-8.7-6.8zM926.8 1069.1c-2.4.6-3.7 3.5-3 6.5s3.2 5 5.6 4.4c2.4-.6 3.7-3.5 3-6.5-.7-3-3.2-5-5.6-4.4zM831.8 979.3h-.2c-1.9-.1-3.4-1.8-3.3-3.7 0-.5 3.4-54.2 0-110.4-.1-1.9 1.3-3.6 3.3-3.7 1.9-.1 3.6 1.3 3.7 3.3 3.5 56.6 0 110.7 0 111.2-.1 1.9-1.7 3.3-3.5 3.3zM794.5 1035.8c-1 0-1.9-.4-2.6-1.1-63.1-69.3-101.8-131.3-102.1-131.9-1-1.6-.5-3.8 1.1-4.8s3.8-.5 4.8 1.1c.4.6 38.8 62.1 101.4 130.9 1.3 1.4 1.2 3.6-.2 4.9-.7.6-1.6.9-2.4.9zM722.7 1073.1c-1.3 0-2.5-.7-3.1-2-9.7-19.7-10.8-44.9-11.5-60-.2-4.2-.3-7.5-.6-9.6 0 0-.6-1.3-6.1-2.2-4.8-.8-11-.9-17-1-12.7-.3-19.4-.6-21.8-4.5-3.6-6.1.3-28 9.3-69 .4-1.9 2.3-3.1 4.2-2.7 1.9.4 3.1 2.3 2.7 4.2-3.8 17.2-12.6 57.2-10.2 63.7 2.1 1 10.4 1.2 16 1.3 14.8.3 28.8.6 29.9 9.3.3 2.4.5 5.8.7 10.2.6 14.5 1.7 38.8 10.8 57.2.9 1.7.1 3.8-1.6 4.7-.6.3-1.1.4-1.7.4zm-54-82.8z" fill="#1a1a18" class="fill-202d37"></path><path d="M770.4 1069.5c-.8 0-1.6-.3-2.2-.8-1.5-1.2-1.7-3.5-.4-4.9 19.3-23 36.8-52.8 43.5-74.3 5.1-16.4 27.2-22.4 67.4-18.2 31.8 3.3 38.3 25.5 39.6 32.3 2.1 11.4-1.4 22.2-8.3 25.6-1.7.9-3.8.2-4.7-1.6-.9-1.7-.2-3.8 1.6-4.7 3.5-1.7 6.2-9.1 4.6-18.1-1-5.5-6.4-23.8-33.4-26.6-35.4-3.6-56.2 1-60 13.4-7 22.3-25 53.1-44.8 76.7-.9.7-1.9 1.2-2.9 1.2z" fill="#1a1a18" class="fill-202d37"></path><path d="M900.2 1048.2c-1.6 0-3-1.1-3.4-2.7-.5-1.9.7-3.8 2.6-4.2 2.5-.6 4.2-1.8 5.1-3.5 3.1-5.7-1.3-17.6-3.4-23.3-2.2-6.2-20.3-16.1-42.6-20.4-1.9-.4-3.1-2.2-2.8-4.1.4-1.9 2.2-3.1 4.1-2.8 20.2 4 43.8 14 47.8 24.9 3.9 10.7 6.9 21.6 3 29-1.9 3.6-5.1 5.9-9.6 7-.2.1-.5.1-.8.1zM817.5 1132.4c-.9 0-1.8-.3-2.5-1-1.8-1.8-1-3.7.4-6.9.7-1.6 1.6-3.7 2.9-6.4 2.1-4.6 4.3-9.1 4.3-9.1.5-1 1.4-1.7 2.6-1.9 1.3-.2 31.9-5.9 35.3-33.1.2-1.9 2-3.3 3.9-3 1.9.2 3.3 2 3 3.9-3.5 28.1-31.7 36.8-39.2 38.7-3.2 6.8-6.6 14-7.2 15.8-.1.7-.4 1.4-1 2-.7.7-1.6 1-2.5 1zm2.5-5.9zm0 0zm0 0z" fill="#1a1a18" class="fill-202d37"></path><path d="M870.9 1100c-4 0-8-2.2-10.7-6-2.8-3.9-3.4-8.5-1.6-12.2.8-1.7 2.9-2.5 4.7-1.6 1.7.8 2.5 2.9 1.6 4.7-.8 1.6 0 3.7 1 5 1.5 2 3.6 3.3 5.4 3.1 4.6-.5 15.8-10.5 17.2-17.5 1.1-5.8-7.8-25.7-12.8-28.4-5.5-3-14.1-1.8-14.2-1.8-1.9.3-3.7-1.1-3.9-3-.3-1.9 1.1-3.7 3-4 .4-.1 11-1.5 18.5 2.6 8.2 4.5 17.9 27.7 16.3 35.9-1.9 9.6-15.6 22.2-23.2 23.1-.4.1-.9.1-1.3.1z" fill="#1a1a18" class="fill-202d37"></path><path d="M890.4 1069.5c-1.8 0-3.4-1.4-3.5-3.3-.1-1.9 1.3-3.6 3.3-3.7 4-.3 6.7-1.4 7.8-3.4 3.2-5.5-2.9-18.2-6.6-25.8l-.9-2c-1.2-2.5-11.9-9.7-27.2-12.3-1.9-.3-3.2-2.1-2.9-4 .3-1.9 2.1-3.2 4-2.9 16 2.7 29.6 10.6 32.3 16.2l.9 1.9c4.8 10 11.4 23.7 6.3 32.4-2.4 4.1-6.9 6.4-13.4 6.8 0 .1 0 .1-.1.1z" fill="#1a1a18" class="fill-202d37"></path><path d="M1148.9 1007.1c2.8 17.3 49.8-6.1 40.6-27-8.6-19.7-43.7 7.5-40.6 27z" fill="#fffef2" class="fill-fffef2"></path><path d="M1157.4 1016.6c-1.6 0-3.1-.2-4.4-.6-4.1-1.2-6.8-4.2-7.5-8.4-2.4-14.8 13.3-32.7 27.9-37 8.8-2.6 16.1.4 19.4 8.1 3.1 7.1 1.3 15.1-5.3 22.6-7.9 9-20.8 15.3-30.1 15.3zm22-39.8c-1.1 0-2.5.2-4 .6-11.3 3.3-24.7 18.3-22.9 29.2.2 1.5 1 2.3 2.5 2.8 5.9 1.7 19.4-3.6 27.3-12.6 3.3-3.7 6.6-9.4 4.1-15.2-.6-1.4-2.1-4.8-7-4.8zM1033.7 1050.9c-1.1 0-2.3 0-3.4-.1-13.6-1-26-8-34.7-19.6-8.7-11.5-12.8-26.2-11.7-41.4 1-13.3 6.1-26 14.3-35.6 10.7-12.5 25.5-19 40.6-17.9 5.4.4 10.7 1.8 15.7 4.1 13 6 23.2 18.1 28 33.1 2.4 7.7 3.3 15.7 2.7 23.9-.6 7.7-2.5 15.1-5.6 21.9-8.9 19.5-26.7 31.6-45.9 31.6zm1.8-107.8c-11.9 0-23.4 5.6-31.9 15.5-7.3 8.5-11.8 19.8-12.7 31.6-1 13.5 2.6 26.6 10.3 36.7 7.5 10 18.1 16 29.6 16.9 17.5 1.3 34.2-9.5 42.5-27.5 2.8-6.1 4.5-12.7 5-19.5.5-7.3-.3-14.4-2.4-21.3-4.1-13.1-13-23.7-24.2-28.9-4.2-2-8.7-3.1-13.3-3.5h-2.9z" fill="#1a1a18" class="fill-202d37"></path><path d="M1076.5 1021.3c-.4 0-.7-.1-1.1-.2l-39.1-12.8c-.7-.2-1.3-.7-1.7-1.2l-36.5-48.7c-1-1.3-.9-3.1.1-4.4 10.7-12.5 25.5-19 40.6-17.9 5.4.4 10.7 1.8 15.7 4.1 13 6 23.2 18.1 28 33.1 2.4 7.7 3.3 15.7 2.7 23.9-.6 7.7-2.5 15.1-5.6 21.9a3.3 3.3 0 0 1-3.1 2.2zm-36.9-19.3 35 11.4c2.1-5.3 3.4-10.9 3.8-16.7.5-7.3-.3-14.4-2.4-21.3-4.1-13.1-13-23.7-24.2-28.9-4.2-2-8.7-3.1-13.3-3.5-12.1-.9-23.9 3.9-32.9 13.4l34 45.6z" fill="#1a1a18" class="fill-202d37"></path><path d="m1079.2 974.5-41.8 30.5 15.7-61.5c12.3 5.6 21.7 16.9 26.1 31z" fill="#474746" class="fill-fad932"></path><path d="M1037.4 1008.5c-.7 0-1.4-.2-2-.6-1.2-.8-1.8-2.3-1.4-3.8l15.7-61.5c.3-1 .9-1.8 1.9-2.3.9-.4 2-.5 3 0 13 6 23.2 18.1 28 33.1.4 1.4-.1 3-1.3 3.9l-41.8 30.5c-.6.5-1.4.7-2.1.7zm18.1-59.9-12.2 47.8 31.9-23.3c-4-10.5-10.9-19.2-19.7-24.5z" fill="#1a1a18" class="fill-202d37"></path><path d="M1140.1 980.4c1.2 17.5 50.1-1.7 42.8-23.3-6.8-20.5-44.2 3.6-42.8 23.3z" fill="#fffef2" class="fill-fffef2"></path><path d="M1149.7 990.7c-2.4 0-4.5-.3-6.3-1-4-1.6-6.4-4.8-6.7-9-1.1-15 16.2-31.4 31-34.4 9-1.8 16 1.8 18.6 9.7 2.5 7.4-.1 15.2-7.2 22-8.1 7.7-20.3 12.7-29.4 12.7zm-6.1-10.5c.1 1.5.8 2.4 2.3 3 5.7 2.2 19.6-1.9 28.3-10.2 3.6-3.4 7.4-8.8 5.4-14.8-.6-1.7-2.3-6.8-10.6-5.1-11.5 2.3-26.2 16.1-25.4 27.1z" fill="#1a1a18" class="fill-202d37"></path><path d="M1133.7 954.7c1.3 18.3 53.9-.3 46.1-22.9-7.4-21.5-47.6 2.2-46.1 22.9z" fill="#fffef2" class="fill-fffef2"></path><path d="M1144.6 965.6c-2.7 0-5.1-.4-7.2-1.2-4.3-1.7-6.9-5-7.2-9.5-1.1-15.3 16.7-31.4 32.2-34.6 10.1-2.1 17.8 1.8 20.7 10.3 2.5 7.3.1 15-6.8 21.7-8.3 8-21.6 13.3-31.7 13.3zm23-38.8c-1.2 0-2.5.1-3.9.4-12.4 2.5-27.4 15.8-26.6 27.2.1 1.2.5 2.6 2.8 3.5 6.6 2.5 22.5-1.8 31.5-10.6 3.4-3.3 7.1-8.5 5.1-14.4-1.4-4.1-4.4-6.1-8.9-6.1z" fill="#1a1a18" class="fill-202d37"></path><path d="M1118 932.2c0 18.4 57.6-1.6 50.2-24.4-7.5-22.7-50.2.4-50.2 24.4z" fill="#fffef2" class="fill-fffef2"></path><path d="M1128.3 942.9c-3 0-5.6-.4-7.8-1.4-3.9-1.7-6.1-5-6.1-9.3 0-17.5 19.3-34.2 36-36.8 10.3-1.6 18.2 2.6 21 11.4 2.4 7.3-.4 15.1-8 22-9.3 8.4-24.3 14.1-35.1 14.1zm-6.8-10.7c0 1.2.3 2.1 1.9 2.9 6.6 2.9 25-2.1 35.4-11.5 3.8-3.4 7.9-8.8 6-14.6-1.8-5.5-6.3-7.8-13.3-6.6-13.5 2.1-30 16.3-30 29.8zM915.8 1015c6.9 18.6 12.6 35.6 10.9 42.1-.8 3.1-6.5 4.5-9.2 0-2.7-4.5-8.5-30.8-8.5-30.8s6.3-1.6 6.8-11.3z" fill="#1a1a18" class="fill-202d37"></path></svg>